<svg xmlns="http://www.w3.org/2000/svg" version="1.1" xmlns:xlink="http://www.w3.org/1999/xlink" xmlns:svgjs="http://svgjs.dev/svgjs" width="1000" height="1000" viewBox="0 0 1000 1000"><rect width="1000" height="1000" fill="#0a1627"></rect><g transform="matrix(0.7,0,0,0.7,149.57575906116648,282.1265587044535)"><svg viewBox="0 0 396 247" data-background-color="#0a1627" preserveAspectRatio="xMidYMid meet" height="623" width="1000" xmlns="http://www.w3.org/2000/svg" xmlns:xlink="http://www.w3.org/1999/xlink"><defs></defs><g id="tight-bounds" transform="matrix(1,0,0,1,0.23999929098249595,-0.09999999999999432)"><svg viewBox="0 0 395.52 247.2" height="247.2" width="395.52"><g><svg></svg></g><g><svg viewBox="0 0 395.52 247.2" height="247.2" width="395.52"><g><path d="M322.244 231.993h41.023v15.207h-78.863l-24.756-56.23h-123.776l-24.756 56.23h-78.863v-15.207h41.023l32.15-72.977 184.668 0zM175.48 0h44.56l38.849 88.184h-44.543l-16.586-37.612-16.586 37.612-44.543 0z" fill="#fe0039" data-fill-palette-color="tertiary"></path></g><g transform="matrix(1,0,0,1,0,99.54252697528716)"><svg viewBox="0 0 395.52 48.11494604942568" height="48.11494604942568" width="395.52"><g><svg viewBox="0 0 395.52 48.11494604942568" height="48.11494604942568" width="395.52"><g><svg viewBox="0 0 395.52 48.11494604942568" height="48.11494604942568" width="395.52"><g><svg viewBox="0 0 395.52 48.11494604942568" height="48.11494604942568" width="395.52"><g><svg viewBox="0 0 395.52 48.11494604942568" height="48.11494604942568" width="395.52"><g><svg viewBox="0 0 395.52 48.11494604942568" height="48.11494604942568" width="395.52"><g transform="matrix(1,0,0,1,0,0)"><svg width="395.52" viewBox="-4.849999904632568 -34.95000076293945 287.2799987792969 34.95000076293945" height="48.11494604942568" data-palette-color="#fe0039"><path d="M36.15-2.15L41.95-2.15 41.95 0 30.8 0 27.3-7.95 9.8-7.95 6.3 0-4.85 0-4.85-2.15 0.95-2.15 15.4-34.95 21.7-34.95 36.15-2.15ZM12.2-13.4L24.9-13.4 18.55-27.8 12.2-13.4ZM65.95-2.15L72.4-2.15 72.4 0 37.1 0 37.1-2.15 41.95-2.15 41.95-34.95 55.55-34.95Q59.1-34.95 61.67-34.1 64.25-33.25 65.5-31.8L65.5-31.8Q67.9-29.1 67.9-25.7L67.9-25.7Q67.9-21.6 65.3-19.6L65.3-19.6Q64.35-18.9 64-18.73 63.65-18.55 62.75-18.15L62.75-18.15Q66-17.45 67.92-15.23 69.85-13 69.85-9.7L69.85-9.7Q69.85-4.75 65.95-2.15L65.95-2.15ZM47.85-15L47.85-5.45 57.1-5.45Q60.35-5.45 62.07-6.48 63.8-7.5 63.8-10.35L63.8-10.35Q63.8-15 56.35-15L56.35-15 47.85-15ZM47.85-29.5L47.85-20.45 55.35-20.45Q61.75-20.45 61.75-24.8L61.75-24.8Q61.75-27.3 60.2-28.4 58.65-29.5 55.4-29.5L55.4-29.5 47.85-29.5ZM99.95-2.15L111.5-2.15 111.5 0 72.4 0 72.4-2.15 77.25-2.15 77.25-34.95 89.25-34.95Q98.65-34.95 103.7-30.38 108.75-25.8 108.75-17.5L108.75-17.5Q108.75-6.35 99.95-2.15L99.95-2.15ZM102.8-17.5L102.8-17.5Q102.8-29.5 89.05-29.5L89.05-29.5 83.15-29.5 83.15-5.55 89.7-5.55Q96.05-5.55 99.42-8.58 102.8-11.6 102.8-17.5ZM139.49-2.15L149.89-2.15 149.89 0 111.49 0 111.49-2.15 121.84-2.15Q115.89-6.3 115.89-15.3L115.89-15.3 115.89-34.95 121.79-34.95 121.79-15.55Q121.79-10.75 124.19-7.95 126.59-5.15 130.69-5.15 134.79-5.15 137.19-7.95 139.59-10.75 139.59-15.55L139.59-15.55 139.59-34.95 145.49-34.95 145.49-15.3Q145.49-6.25 139.49-2.15L139.49-2.15ZM176.59-2.15L181.44-2.15 181.44 0 149.89 0 149.89-2.15 154.74-2.15 154.74-34.95 160.64-34.95 160.64-5.6 176.59-5.6 176.59-2.15ZM204.89-2.15L209.74-2.15 209.74 0 178.19 0 178.19-2.15 183.04-2.15 183.04-34.95 188.94-34.95 188.94-5.6 204.89-5.6 204.89-2.15ZM242.64-2.15L248.44-2.15 248.44 0 237.29 0 233.79-7.95 216.29-7.95 212.79 0 201.64 0 201.64-2.15 207.44-2.15 221.89-34.95 228.19-34.95 242.64-2.15ZM218.69-13.4L231.39-13.4 225.04-27.8 218.69-13.4ZM282.43 0L282.43-2.15 277.58-2.15 277.58-34.95 271.68-34.95 271.68-19.8 254.33-19.8 254.33-34.95 248.43-34.95 248.43 0 254.33 0 254.33-14.3 271.68-14.3 271.68 0 282.43 0ZM243.58-2.15L248.43-2.15 248.43 0 243.58 0 243.58-2.15Z" opacity="1" transform="matrix(1,0,0,1,0,0)" fill="#fe0039" class="undefined-text-0" data-fill-palette-color="primary" id="text-0"></path></svg></g></svg></g></svg></g></svg></g></svg></g></svg></g></svg></g></svg></g></svg><rect width="395.52" height="247.2" fill="none" stroke="none" visibility="hidden"></rect></g></svg></g></svg>